<svg fill="none" height="40" viewBox="0 0 40 40" width="40" xmlns="http://www.w3.org/2000/svg"><path d="m12.5007 18.3333h-4.83338c-.93342 0-1.40013 0-1.75665.1817-.31361.1598-.56857.4147-.72836.7283-.18166.3566-.18166.8233-.18166 1.7567v14m22.50005-16.6667h4.8333c.9334 0 1.4001 0 1.7566.1817.3136.1598.5686.4147.7284.7283.1817.3566.1817.8233.1817 1.7567v14m-7.5 0v-24.6667c0-1.86681 0-2.80023-.3634-3.51327-.3195-.62721-.8295-1.13714-1.4567-1.45672-.713-.36331-1.6464-.36331-3.5133-.36331h-4.3333c-1.8669 0-2.8003 0-3.5133.36331-.6272.31958-1.1372.82951-1.4567 1.45672-.3633.71304-.3633 1.64646-.3633 3.51327v24.6667m24.1666 0h-33.33332m15.00002-23.3333h3.3333m-3.3333 6.6666h3.3333m-3.3333 6.6667h3.3333" stroke="#023997" stroke-linecap="round" stroke-linejoin="round" stroke-width="3"/></svg>